<svg width="920" height="1040" viewBox="0 0 920 1040" fill="none" xmlns="http://www.w3.org/2000/svg" role="img" aria-labelledby="title desc">
  <title id="title">Logo completo Thais Coletto Psicologa</title>
  <desc id="desc">Versao principal da marca com assinatura profissional e simbolo floral.</desc>
  <rect width="920" height="1040" rx="28" fill="#F5EDF0"/>
  <path id="arc" d="M214 228C286 126 417 92 552 108C642 118 708 162 744 232" />
  <text fill="#97A069" font-family="Georgia, 'Times New Roman', serif" font-size="74" letter-spacing="12">
    <textPath href="#arc" startOffset="8%">PSICOLOGA</textPath>
  </text>
  <g transform="translate(170,286)">
    <g stroke="#E89AA9" stroke-width="2.4" stroke-linecap="round" stroke-linejoin="round">
      <path d="M24 230C38 211 38 179 27 156" opacity="0.7"/>
      <path d="M18 241C30 243 35 252 25 259" opacity="0.7"/>
      <path d="M86 222C141 214 193 214 246 222" opacity="0.35"/>
      <path d="M338 222C390 214 442 214 498 222" opacity="0.35"/>
      <path d="M248 48C233 56 228 77 241 92C254 108 274 107 285 92C295 77 287 53 269 47"/>
      <path d="M214 83C201 91 203 113 219 123C237 134 258 123 260 104C263 89 247 76 230 77"/>
      <path d="M293 86C284 100 292 120 310 125C327 131 344 121 345 105C345 88 327 76 310 77"/>
      <path d="M187 115C176 131 182 153 203 160C221 167 240 154 240 137C241 120 224 106 205 106"/>
      <path d="M333 126C322 142 328 163 349 170C367 176 386 161 387 143C387 126 370 111 351 111"/>
      <path d="M265 106C242 123 239 158 259 176C280 194 316 192 333 168C350 146 344 114 319 99C302 88 281 92 265 106Z"/>
      <path d="M268 171C276 198 300 211 321 209C344 207 362 188 364 167"/>
      <path d="M305 209C315 233 309 250 294 266"/>
      <path d="M289 266C275 250 267 230 271 209"/>
      <path d="M181 57C187 37 208 29 227 41"/>
      <path d="M288 31C302 42 308 58 301 74"/>
      <path d="M145 148C159 156 166 175 160 190"/>
      <path d="M371 143C389 154 395 174 384 190"/>
      <path d="M465 212C478 216 484 230 478 243" opacity="0.5"/>
    </g>
  </g>
  <text
    x="460"
    y="690"
    fill="#CE8E9E"
    font-family="Georgia, 'Times New Roman', serif"
    font-size="84"
    letter-spacing="6"
    text-anchor="middle"
  >
    THAIS COLETTO
  </text>
  <line x1="286" y1="736" x2="642" y2="736" stroke="#97A069" stroke-width="4"/>
  <text
    x="460"
    y="790"
    fill="#97A069"
    font-family="'Trebuchet MS', Arial, sans-serif"
    font-size="36"
    letter-spacing="10"
    text-anchor="middle"
  >
    CRP: 07/34396
  </text>
  <text
    x="460"
    y="854"
    fill="#97A069"
    font-family="'Trebuchet MS', Arial, sans-serif"
    font-size="52"
    letter-spacing="4"
    text-anchor="middle"
  >
    Avaliacao Psicologica
  </text>
  <text
    x="460"
    y="916"
    fill="#97A069"
    font-family="'Trebuchet MS', Arial, sans-serif"
    font-size="52"
    letter-spacing="4"
    text-anchor="middle"
  >
    Mestre em Educacao
  </text>
</svg>
