<svg width="220" height="180" viewBox="0 0 220 180" fill="none" xmlns="http://www.w3.org/2000/svg" role="img" aria-labelledby="title desc">
  <title id="title">Simbolo Thais Coletto Psicologa</title>
  <desc id="desc">Ilustracao floral minimalista com tracos leves em rosa.</desc>
  <g stroke="#E89AA9" stroke-width="1.6" stroke-linecap="round" stroke-linejoin="round">
    <path d="M28 96C36 86 36 72 30 60" opacity="0.7"/>
    <path d="M25 101C31 102 33 107 28 111" opacity="0.7"/>
    <path d="M52 104C72 100 92 100 110 104" opacity="0.35"/>
    <path d="M110 104C128 100 148 100 168 104" opacity="0.35"/>
    <path d="M104 46C97 49 95 59 102 64C108 69 117 68 121 61C125 54 121 45 113 43" />
    <path d="M88 63C82 67 83 77 90 81C98 86 108 81 109 72C110 65 103 59 95 60" />
    <path d="M126 65C122 72 126 81 134 83C141 85 149 80 149 73C149 66 142 60 134 60" />
    <path d="M75 78C70 85 73 95 82 98C90 101 99 95 99 87C99 79 91 73 83 73" />
    <path d="M143 83C138 90 141 100 151 103C159 106 168 99 168 91C168 83 160 77 152 77" />
    <path d="M111 74C100 82 99 98 109 106C118 114 134 113 142 102C150 91 147 77 135 69C127 64 118 67 111 74Z" />
    <path d="M112 104C116 117 127 123 137 122C147 121 156 113 157 103" />
    <path d="M130 122C135 133 133 141 126 148" />
    <path d="M122 148C116 141 112 131 114 121" />
    <path d="M86 49C89 39 99 35 108 40" />
    <path d="M124 38C130 43 132 51 128 58" />
    <path d="M66 91C72 95 75 103 72 110" />
    <path d="M161 87C169 92 172 102 167 111" />
  </g>
</svg>
