<svg width="1200" height="630" viewBox="0 0 1200 630" fill="none" xmlns="http://www.w3.org/2000/svg" role="img" aria-labelledby="title desc">
  <title id="title">Thais Coletto Psicologa</title>
  <desc id="desc">Imagem social da marca Thais Coletto Psicologa.</desc>
  <defs>
    <linearGradient id="bg" x1="0" y1="0" x2="1200" y2="630" gradientUnits="userSpaceOnUse">
      <stop stop-color="#F6EEF1"/>
      <stop offset="1" stop-color="#F2E5E9"/>
    </linearGradient>
  </defs>
  <rect width="1200" height="630" fill="url(#bg)"/>
  <circle cx="1040" cy="100" r="180" fill="#F9F1F4"/>
  <circle cx="140" cy="600" r="220" fill="#F9F1F4"/>
  <g transform="translate(130,145)">
    <g stroke="#E89AA9" stroke-width="2" stroke-linecap="round" stroke-linejoin="round">
      <path d="M24 124C34 112 34 92 27 77" opacity="0.7"/>
      <path d="M84 120C130 113 170 113 217 120" opacity="0.35"/>
      <path d="M274 120C320 113 360 113 407 120" opacity="0.35"/>
      <path d="M220 34C207 41 203 59 215 71C226 83 245 82 253 68C261 54 256 38 241 33"/>
      <path d="M189 58C177 67 179 83 193 92C208 101 228 93 230 78C231 64 217 54 201 54"/>
      <path d="M257 60C249 71 255 87 271 91C286 96 302 87 303 74C303 59 288 50 273 51"/>
      <path d="M230 84C209 99 206 131 224 147C242 163 273 160 287 140C301 122 296 92 276 80C262 72 244 74 230 84Z"/>
    </g>
    <text x="450" y="132" fill="#CE8E9E" font-family="Georgia, 'Times New Roman', serif" font-size="94" letter-spacing="8">
      THAIS COLETTO
    </text>
    <line x1="450" y1="160" x2="940" y2="160" stroke="#97A069" stroke-width="4"/>
    <text x="450" y="206" fill="#97A069" font-family="'Trebuchet MS', Arial, sans-serif" font-size="32" letter-spacing="9">
      CRP: 07/34396
    </text>
  </g>
  <text x="130" y="470" fill="#97A069" font-family="'Trebuchet MS', Arial, sans-serif" font-size="36" letter-spacing="3">
    Atendimento psicologico com escuta qualificada
  </text>
  <text x="130" y="520" fill="#C88C9D" font-family="Georgia, 'Times New Roman', serif" font-size="38" letter-spacing="2">
    Agendamentos online e conteudos em destaque
  </text>
</svg>
